<svg id="visual" viewBox="0 0 960 540" width="960" height="540" xmlns="http://www.w3.org/2000/svg" xmlns:xlink="http://www.w3.org/1999/xlink" version="1.1"><g transform="translate(449.4113138457816 256.67297495820577)"><path d="M131.9 -160.7C168.7 -126.3 194.6 -82.6 207.4 -33.2C220.1 16.2 219.6 71.4 198.2 120.1C176.9 168.9 134.6 211.3 83.1 231.3C31.7 251.2 -29 248.7 -63.8 217.7C-98.7 186.6 -107.8 127.1 -121.3 81C-134.7 35 -152.6 2.5 -154.5 -34.3C-156.4 -71.1 -142.5 -112.2 -114.1 -148C-85.7 -183.8 -42.9 -214.4 2.4 -217.2C47.6 -220 95.1 -195 131.9 -160.7" fill="#ed425f"></path></g></svg>