<svg id="visual" viewBox="0 0 960 540" width="960" height="540" xmlns="http://www.w3.org/2000/svg" xmlns:xlink="http://www.w3.org/1999/xlink" version="1.1"><rect x="0" y="0" width="960" height="540" fill="#FFFFFF"></rect><path d="M0 322L26.7 315.5C53.3 309 106.7 296 160 283.5C213.3 271 266.7 259 320 258.8C373.3 258.7 426.7 270.3 480 268.2C533.3 266 586.7 250 640 251.2C693.3 252.3 746.7 270.7 800 276.8C853.3 283 906.7 277 933.3 274L960 271L960 0L933.3 0C906.7 0 853.3 0 800 0C746.7 0 693.3 0 640 0C586.7 0 533.3 0 480 0C426.7 0 373.3 0 320 0C266.7 0 213.3 0 160 0C106.7 0 53.3 0 26.7 0L0 0Z" fill="#c83b53" stroke-linecap="round" stroke-linejoin="miter"></path></svg>